<svg width="253" height="230" viewBox="0 0 253 230" fill="none" xmlns="http://www.w3.org/2000/svg">
<path d="M72.8424 93.6401L90.1261 134.554C91.1393 136.952 93.0479 138.861 95.4464 139.874L136.36 157.158C137.989 157.846 137.989 160.154 136.36 160.842L95.4464 178.126C93.0479 179.139 91.1393 181.048 90.1261 183.446L72.8424 224.36C72.1542 225.989 69.8458 225.989 69.1576 224.36L51.8739 183.446C50.8607 181.048 48.9521 179.139 46.5536 178.126L5.64009 160.842C4.01115 160.154 4.01115 157.846 5.64009 157.158L46.5536 139.874C48.9521 138.861 50.8607 136.952 51.8739 134.554L69.1576 93.6401C69.8458 92.0111 72.1542 92.0111 72.8424 93.6401Z" stroke="#D9D9D9" stroke-width="8"/>
<path d="M121.382 3.6952L128.944 21.5974C129.603 23.1563 130.844 24.397 132.403 25.0556L150.305 32.6182C151.527 33.1343 151.527 34.8657 150.305 35.3818L132.403 42.9444C130.844 43.603 129.603 44.8437 128.944 46.4026L121.382 64.3048C120.866 65.5265 119.134 65.5265 118.618 64.3048L111.056 46.4026C110.397 44.8437 109.156 43.603 107.597 42.9444L89.6952 35.3818C88.4735 34.8657 88.4735 33.1343 89.6952 32.6182L107.597 25.0556C109.156 24.397 110.397 23.1563 111.056 21.5974L118.618 3.6952C119.134 2.4735 120.866 2.47349 121.382 3.6952Z" stroke="#D9D9D9" stroke-width="5"/>
<path d="M199.461 60.0844L212.963 92.0468C213.723 93.8456 215.154 95.2771 216.953 96.037L248.916 109.539C249.061 109.601 249.117 109.668 249.147 109.716C249.187 109.781 249.221 109.879 249.221 110C249.221 110.121 249.187 110.219 249.147 110.284C249.117 110.332 249.061 110.399 248.916 110.461L216.953 123.963C215.154 124.723 213.723 126.154 212.963 127.953L199.461 159.916C199.399 160.061 199.332 160.117 199.284 160.147C199.219 160.187 199.121 160.221 199 160.221C198.879 160.221 198.781 160.187 198.716 160.147C198.668 160.117 198.601 160.061 198.539 159.916L185.037 127.953C184.277 126.154 182.846 124.723 181.047 123.963L149.084 110.461C148.939 110.399 148.883 110.332 148.853 110.284C148.813 110.219 148.779 110.121 148.779 110C148.779 109.879 148.813 109.781 148.853 109.716C148.883 109.668 148.939 109.601 149.084 109.539L181.047 96.037C182.846 95.2771 184.277 93.8456 185.037 92.0468L198.539 60.0844C198.601 59.9385 198.668 59.8832 198.716 59.853C198.781 59.8127 198.879 59.7789 199 59.7789C199.121 59.7789 199.219 59.8127 199.284 59.853C199.332 59.8832 199.399 59.9385 199.461 60.0844Z" stroke="#D9D9D9" stroke-width="7"/>
</svg>
